<svg viewBox="0 0 720 200" width="720" height="200" xmlns="http://www.w3.org/2000/svg" role="img" aria-label="William Nayar, backend and distributed systems">
  <defs>
    <linearGradient id="ground" x1="0" y1="0" x2="0" y2="1">
      <stop offset="0" stop-color="#121A24"/>
      <stop offset="1" stop-color="#0D131B"/>
    </linearGradient>
  </defs>

  <rect x="0.5" y="0.5" width="719" height="199" rx="14" fill="url(#ground)" stroke="#223041" stroke-width="1"/>

  <!-- a graph propagating outward from one node -->
  <line x1="607.0" y1="104.0" x2="601.3" y2="71.5" stroke="#2A5480" stroke-width="2.2"/>
  <line x1="607.0" y1="104.0" x2="640.8" y2="116.3" stroke="#2A5480" stroke-width="2.2"/>
  <line x1="607.0" y1="104.0" x2="582.5" y2="124.6" stroke="#2A5480" stroke-width="2.2"/>
  <line x1="601.3" y1="71.5" x2="566.1" y2="67.2" stroke="#2A5480" stroke-width="1.8"/>
  <line x1="601.3" y1="71.5" x2="629.9" y2="47.4" stroke="#2A5480" stroke-width="1.8"/>
  <line x1="640.8" y1="116.3" x2="663.4" y2="96.1" stroke="#2A5480" stroke-width="1.8"/>
  <line x1="640.8" y1="116.3" x2="632.2" y2="160.6" stroke="#2A5480" stroke-width="1.8"/>
  <line x1="582.5" y1="124.6" x2="561.2" y2="132.6" stroke="#2A5480" stroke-width="1.8"/>
  <circle cx="566.1" cy="67.2" r="4.5" fill="#2F5A85"/>
  <circle cx="629.9" cy="47.4" r="4.5" fill="#2F5A85"/>
  <circle cx="663.4" cy="96.1" r="4.5" fill="#2F5A85"/>
  <circle cx="632.2" cy="160.6" r="4.5" fill="#2F5A85"/>
  <circle cx="561.2" cy="132.6" r="4.5" fill="#2F5A85"/>
  <circle cx="601.3" cy="71.5" r="6.0" fill="#3D6E9E"/>
  <circle cx="640.8" cy="116.3" r="6.0" fill="#3D6E9E"/>
  <circle cx="582.5" cy="124.6" r="6.0" fill="#3D6E9E"/>
  <circle cx="607.0" cy="104.0" r="8.0" fill="#4493F8"/>

  <path fill="#E8EEF5" d="M55.6 92.0 52.56 62.8H56.72L58.56 83.2Q58.64 84.24 58.74 85.86Q58.84 87.48 58.84 88.6Q58.96 87.48 59.1 85.86Q59.24 84.24 59.36 83.2L61.92 62.8H66.2L68.6 83.2Q68.72 84.24 68.9 85.86Q69.08 87.48 69.2 88.6Q69.24000000000001 87.48 69.34 85.86Q69.44 84.24 69.52 83.2L71.32 62.8H75.44L72.24000000000001 92.0H66.72L64.48 71.52Q64.36 70.36 64.24000000000001 68.69999999999999Q64.12 67.03999999999999 64.04 65.96000000000001Q63.96 67.03999999999999 63.84 68.69999999999999Q63.72 70.36 63.6 71.52L61.16 92.0Z M84.1 92.0V87.48H89.98V67.32H84.1V62.8H100.9V67.32H95.02V87.48H100.9V92.0Z M113.84 92.0V62.8H118.84V87.48H131.24V92.0Z M142.34 92.0V62.8H147.34V87.48H159.74V92.0Z M169.6 92.0V87.48H175.48V67.32H169.6V62.8H186.4V67.32H180.52V87.48H186.4V92.0Z M195.9 92.0 203.26 62.8H209.7L217.1 92.0H211.98L210.38 84.92H202.62L201.02 92.0ZM203.54 80.84H209.46L207.7 73.0Q207.26 71.03999999999999 206.94 69.46Q206.62 67.88 206.5 67.16Q206.38 67.88 206.06 69.46Q205.74 71.03999999999999 205.3 72.96000000000001Z M225.16 92.0V62.8H231.68L234.96 75.36L238.28 62.8H244.84V92.0H240.16V79.72Q240.16 77.2 240.3 74.5Q240.44 71.8 240.64 69.25999999999999Q240.84 66.72 241.08 64.64L236.96 79.32H232.84L228.88 65.0Q229.24 67.75999999999999 229.54000000000002 71.58Q229.84 75.4 229.84 79.72V92.0Z M282.88 92.0V62.8H289.0L297.12 86.4Q297.0 85.12 296.88 83.38Q296.76 81.64 296.65999999999997 79.84Q296.56 78.03999999999999 296.56 76.64V62.8H301.12V92.0H295.0L286.96 68.4Q287.04 69.56 287.15999999999997 71.2Q287.28 72.84 287.36 74.56Q287.44 76.28 287.44 77.72V92.0Z M309.9 92.0 317.26 62.8H323.7L331.1 92.0H325.98L324.38 84.92H316.62L315.02 92.0ZM317.54 80.84H323.46L321.7 73.0Q321.26 71.03999999999999 320.94 69.46Q320.62 67.88 320.5 67.16Q320.38 67.88 320.06 69.46Q319.74 71.03999999999999 319.3 72.96000000000001Z M346.48 92.0V81.4L337.92 62.8H343.2L347.72 72.92Q348.24 74.12 348.6 75.28Q348.96 76.44 349.08 77.08Q349.24 76.44 349.58000000000004 75.28Q349.92 74.12 350.44 72.92L354.88 62.8H360.08L351.52 81.4V92.0Z M366.9 92.0 374.26 62.8H380.7L388.1 92.0H382.98L381.38 84.92H373.62L372.02 92.0ZM374.54 80.84H380.46L378.7 73.0Q378.26 71.03999999999999 377.94 69.46Q377.62 67.88 377.5 67.16Q377.38 67.88 377.06 69.46Q376.74 71.03999999999999 376.3 72.96000000000001Z M397.08 92.0V62.8H406.28Q409.2 62.8 411.34000000000003 63.88Q413.48 64.96000000000001 414.68 66.9Q415.88 68.84 415.88 71.48Q415.88 74.4 414.44 76.58000000000001Q413.0 78.76 410.56 79.68L416.28 92.0H410.8L405.68 80.4H402.04V92.0ZM402.04 76.0H406.28Q408.4 76.0 409.6 74.84Q410.8 73.68 410.8 71.64Q410.8 69.6 409.58000000000004 68.4Q408.36 67.2 406.28 67.2H402.04Z"/>
  <line x1="108" y1="114" x2="510" y2="114" stroke="#223041" stroke-width="1"/>
  <line x1="52" y1="114" x2="108" y2="114" stroke="#4493F8" stroke-width="2"/>
  <path fill="#8FA3B8" d="M59.636 148.23Q58.21 148.23 57.29 147.5285Q56.37 146.827 56.209 145.585H56.186V148.0H54.116V131.21H56.186V134.89L56.14 137.765H56.163Q56.347 136.546 57.2785 135.833Q58.21 135.12 59.636 135.12Q61.545 135.12 62.672 136.385Q63.799 137.65 63.799 139.835V143.538Q63.799 145.7 62.672 146.96499999999997Q61.545 148.23 59.636 148.23ZM58.946 146.436Q60.257 146.436 60.992999999999995 145.746Q61.729 145.056 61.729 143.515V139.835Q61.729 138.27100000000002 60.992999999999995 137.5925Q60.257 136.914 58.946 136.914Q57.681 136.914 56.933499999999995 137.719Q56.186 138.524 56.186 139.95V143.4Q56.186 144.826 56.933499999999995 145.631Q57.681 146.436 58.946 146.436Z M73.596 148.23Q71.64099999999999 148.23 70.49099999999999 147.1375Q69.341 146.045 69.341 144.274Q69.341 143.101 69.87 142.227Q70.399 141.353 71.342 140.8585Q72.285 140.364 73.50399999999999 140.364H77.414V139.375Q77.414 136.914 74.723 136.914Q73.527 136.914 72.791 137.351Q72.05499999999999 137.788 72.009 138.57H69.939Q70.054 137.075 71.3305 136.0975Q72.607 135.12 74.723 135.12Q77.023 135.12 78.2535 136.224Q79.484 137.328 79.484 139.306V148.0H77.437V145.7H77.39099999999999Q77.207 146.873 76.21799999999999 147.55149999999998Q75.229 148.23 73.596 148.23ZM74.102 146.482Q75.62 146.482 76.517 145.74599999999998Q77.414 145.01 77.414 143.745V141.974H73.734Q72.722 141.974 72.08949999999999 142.58350000000002Q71.457 143.193 71.457 144.205Q71.457 145.263 72.1585 145.8725Q72.86 146.482 74.102 146.482Z M90.684 148.23Q88.384 148.23 87.00399999999999 146.942Q85.624 145.654 85.624 143.4V139.95Q85.624 137.696 87.00399999999999 136.40800000000002Q88.384 135.12 90.684 135.12Q92.869 135.12 94.21449999999999 136.293Q95.55999999999999 137.466 95.62899999999999 139.49H93.559Q93.49 138.27100000000002 92.731 137.6155Q91.972 136.96 90.684 136.96Q89.327 136.96 88.5105 137.7305Q87.69399999999999 138.501 87.69399999999999 139.927V143.4Q87.69399999999999 144.826 88.5105 145.608Q89.327 146.39 90.684 146.39Q91.972 146.39 92.731 145.723Q93.49 145.056 93.559 143.86H95.62899999999999Q95.55999999999999 145.884 94.21449999999999 147.057Q92.869 148.23 90.684 148.23Z M101.631 148.0V131.21H103.70100000000001V140.571H106.116L109.658 135.35H112.027L107.956 141.376L112.257 148.0H109.84200000000001L106.162 142.365H103.70100000000001V148.0Z M122.1 148.23Q119.86899999999999 148.23 118.50049999999999 146.8845Q117.13199999999999 145.539 117.13199999999999 143.17V140.18Q117.13199999999999 137.811 118.50049999999999 136.46550000000002Q119.86899999999999 135.12 122.1 135.12Q123.59499999999998 135.12 124.7105 135.71800000000002Q125.826 136.316 126.44699999999999 137.397Q127.06799999999998 138.478 127.06799999999998 139.95V142.204H119.15599999999999V143.4Q119.15599999999999 144.803 119.96099999999998 145.61950000000002Q120.76599999999999 146.436 122.1 146.436Q123.24999999999999 146.436 123.99749999999999 145.9875Q124.74499999999999 145.539 124.90599999999999 144.78H126.97599999999998Q126.76899999999999 146.367 125.43499999999999 147.2985Q124.10099999999998 148.23 122.1 148.23ZM119.15599999999999 140.594H125.04399999999998V139.95Q125.04399999999998 138.455 124.27349999999998 137.63850000000002Q123.50299999999999 136.822 122.1 136.822Q120.69699999999999 136.822 119.92649999999999 137.63850000000002Q119.15599999999999 138.455 119.15599999999999 139.95Z M133.116 148.0V135.35H135.186V137.765H135.209Q135.37 136.5 136.244 135.81Q137.118 135.12 138.567 135.12Q140.476 135.12 141.603 136.293Q142.73 137.466 142.73 139.49V148.0H140.66V139.858Q140.66 138.409 139.9355 137.6385Q139.211 136.868 137.969 136.868Q136.681 136.868 135.9335 137.673Q135.186 138.478 135.186 139.95V148.0Z M152.964 148.23Q151.078 148.23 149.9395 146.96499999999997Q148.80100000000002 145.7 148.80100000000002 143.538V139.835Q148.80100000000002 137.65 149.928 136.385Q151.055 135.12 152.964 135.12Q154.39000000000001 135.12 155.32150000000001 135.833Q156.25300000000001 136.546 156.437 137.765H156.46L156.41400000000002 134.89V131.21H158.484V148.0H156.41400000000002V145.585H156.39100000000002Q156.23000000000002 146.827 155.31 147.5285Q154.39000000000001 148.23 152.964 148.23ZM153.65400000000002 146.436Q154.942 146.436 155.678 145.631Q156.41400000000002 144.826 156.41400000000002 143.4V139.95Q156.41400000000002 138.524 155.678 137.719Q154.942 136.914 153.65400000000002 136.914Q152.34300000000002 136.914 151.60700000000003 137.5925Q150.871 138.27100000000002 150.871 139.835V143.515Q150.871 145.056 151.60700000000003 145.746Q152.34300000000002 146.436 153.65400000000002 146.436Z M185.29999999999998 142.01999999999998Q184.44899999999998 142.01999999999998 183.93149999999997 141.51399999999998Q183.414 141.00799999999998 183.414 140.203Q183.414 139.352 183.93149999999997 138.82299999999998Q184.44899999999998 138.29399999999998 185.29999999999998 138.29399999999998Q186.15099999999998 138.29399999999998 186.6685 138.82299999999998Q187.18599999999998 139.352 187.18599999999998 140.203Q187.18599999999998 141.00799999999998 186.6685 141.51399999999998Q186.15099999999998 142.01999999999998 185.29999999999998 142.01999999999998Z M216.164 148.23Q214.278 148.23 213.1395 146.96499999999997Q212.001 145.7 212.001 143.538V139.835Q212.001 137.65 213.128 136.385Q214.255 135.12 216.164 135.12Q217.59 135.12 218.5215 135.833Q219.453 136.546 219.637 137.765H219.66L219.614 134.89V131.21H221.684V148.0H219.614V145.585H219.591Q219.43 146.827 218.51 147.5285Q217.59 148.23 216.164 148.23ZM216.854 146.436Q218.142 146.436 218.878 145.631Q219.614 144.826 219.614 143.4V139.95Q219.614 138.524 218.878 137.719Q218.142 136.914 216.854 136.914Q215.543 136.914 214.80700000000002 137.5925Q214.071 138.27100000000002 214.071 139.835V143.515Q214.071 145.056 214.80700000000002 145.746Q215.543 146.436 216.854 146.436Z M227.75500000000002 148.0V146.114H232.24V137.236H228.215V135.35H234.31V146.114H238.565V148.0ZM233.04500000000002 133.073Q232.28600000000003 133.073 231.84900000000005 132.68200000000002Q231.41200000000003 132.291 231.41200000000003 131.624Q231.41200000000003 130.934 231.84900000000005 130.5315Q232.28600000000003 130.129 233.04500000000002 130.129Q233.80400000000003 130.129 234.24100000000004 130.5315Q234.67800000000003 130.934 234.67800000000003 131.624Q234.67800000000003 132.291 234.24100000000004 132.68200000000002Q233.80400000000003 133.073 233.04500000000002 133.073Z M247.99400000000003 148.184Q245.87800000000001 148.184 244.71650000000002 147.2295Q243.55500000000004 146.275 243.55500000000004 144.527H245.62500000000003Q245.62500000000003 145.401 246.24600000000004 145.8955Q246.86700000000002 146.39 247.99400000000003 146.39H249.00600000000003Q250.15600000000003 146.39 250.78850000000003 145.884Q251.42100000000002 145.378 251.42100000000002 144.458Q251.42100000000002 142.825 249.92600000000002 142.618L246.43000000000004 142.112Q245.14200000000002 141.928 244.42900000000003 141.04250000000002Q243.71600000000004 140.157 243.71600000000004 138.708Q243.71600000000004 137.052 244.85450000000003 136.10899999999998Q245.99300000000002 135.166 247.99400000000003 135.166H249.00600000000003Q250.84600000000003 135.166 252.00750000000002 136.0745Q253.169 136.983 253.26100000000002 138.455H251.16800000000003Q251.122 137.788 250.5355 137.351Q249.949 136.914 249.00600000000003 136.914H247.99400000000003Q246.93600000000004 136.914 246.33800000000002 137.397Q245.74 137.88 245.74 138.708Q245.74 140.042 246.95900000000003 140.226L250.22500000000002 140.686Q253.44500000000002 141.146 253.44500000000002 144.458Q253.44500000000002 146.229 252.2835 147.2065Q251.122 148.184 249.00600000000003 148.184Z M265.56500000000005 148.0Q264.00100000000003 148.0 263.058 147.0915Q262.115 146.183 262.115 144.665V137.236H258.48100000000005V135.35H262.115V131.785H264.18500000000006V135.35H269.36V137.236H264.18500000000006V144.665Q264.18500000000006 145.309 264.56450000000007 145.7115Q264.944 146.114 265.56500000000005 146.114H269.24500000000006V148.0Z M275.77600000000007 148.0V135.35H277.84600000000006V137.765H277.89200000000005Q278.05300000000005 136.546 278.927 135.833Q279.80100000000004 135.12 281.273 135.12Q283.25100000000003 135.12 284.32050000000004 136.30450000000002Q285.39000000000004 137.489 285.39000000000004 139.674V140.755H283.32000000000005V139.674Q283.32000000000005 136.914 280.629 136.914Q279.27200000000005 136.914 278.5590000000001 137.696Q277.84600000000006 138.478 277.84600000000006 139.95V148.0Z M290.95500000000004 148.0V146.114H295.44000000000005V137.236H291.4150000000001V135.35H297.51000000000005V146.114H301.76500000000004V148.0ZM296.24500000000006 133.073Q295.48600000000005 133.073 295.04900000000004 132.68200000000002Q294.612 132.291 294.612 131.624Q294.612 130.934 295.04900000000004 130.5315Q295.48600000000005 130.129 296.24500000000006 130.129Q297.004 130.129 297.44100000000003 130.5315Q297.87800000000004 130.934 297.87800000000004 131.624Q297.87800000000004 132.291 297.44100000000003 132.68200000000002Q297.004 133.073 296.24500000000006 133.073Z M312.4360000000001 148.23Q311.01000000000005 148.23 310.09000000000003 147.5285Q309.1700000000001 146.827 309.00900000000007 145.585H308.98600000000005V148.0H306.91600000000005V131.21H308.98600000000005V134.89L308.94000000000005 137.765H308.9630000000001Q309.14700000000005 136.546 310.0785000000001 135.833Q311.01000000000005 135.12 312.4360000000001 135.12Q314.3450000000001 135.12 315.4720000000001 136.385Q316.59900000000005 137.65 316.59900000000005 139.835V143.538Q316.59900000000005 145.7 315.4720000000001 146.96499999999997Q314.3450000000001 148.23 312.4360000000001 148.23ZM311.7460000000001 146.436Q313.0570000000001 146.436 313.79300000000006 145.746Q314.52900000000005 145.056 314.52900000000005 143.515V139.835Q314.52900000000005 138.27100000000002 313.79300000000006 137.5925Q313.0570000000001 136.914 311.7460000000001 136.914Q310.48100000000005 136.914 309.73350000000005 137.719Q308.98600000000005 138.524 308.98600000000005 139.95V143.4Q308.98600000000005 144.826 309.73350000000005 145.631Q310.48100000000005 146.436 311.7460000000001 146.436Z M327.4770000000001 148.23Q325.2920000000001 148.23 323.9810000000001 146.9305Q322.6700000000001 145.631 322.6700000000001 143.4V135.35H324.74000000000007V143.4Q324.74000000000007 144.78 325.4760000000001 145.5965Q326.2120000000001 146.413 327.4770000000001 146.413Q328.7650000000001 146.413 329.5125000000001 145.5965Q330.2600000000001 144.78 330.2600000000001 143.4V135.35H332.3300000000001V143.4Q332.3300000000001 145.631 330.9960000000001 146.9305Q329.6620000000001 148.23 327.4770000000001 148.23Z M344.5650000000001 148.0Q343.0010000000001 148.0 342.0580000000001 147.0915Q341.11500000000007 146.183 341.11500000000007 144.665V137.236H337.4810000000001V135.35H341.11500000000007V131.785H343.1850000000001V135.35H348.36000000000007V137.236H343.1850000000001V144.665Q343.1850000000001 145.309 343.56450000000007 145.7115Q343.9440000000001 146.114 344.5650000000001 146.114H348.2450000000001V148.0Z M359.1000000000001 148.23Q356.8690000000001 148.23 355.5005000000001 146.8845Q354.1320000000001 145.539 354.1320000000001 143.17V140.18Q354.1320000000001 137.811 355.5005000000001 136.46550000000002Q356.8690000000001 135.12 359.1000000000001 135.12Q360.5950000000001 135.12 361.7105000000001 135.71800000000002Q362.8260000000001 136.316 363.4470000000001 137.397Q364.0680000000001 138.478 364.0680000000001 139.95V142.204H356.1560000000001V143.4Q356.1560000000001 144.803 356.9610000000001 145.61950000000002Q357.7660000000001 146.436 359.1000000000001 146.436Q360.2500000000001 146.436 360.9975000000001 145.9875Q361.7450000000001 145.539 361.9060000000001 144.78H363.9760000000001Q363.7690000000001 146.367 362.4350000000001 147.2985Q361.1010000000001 148.23 359.1000000000001 148.23ZM356.1560000000001 140.594H362.0440000000001V139.95Q362.0440000000001 138.455 361.2735000000001 137.63850000000002Q360.5030000000001 136.822 359.1000000000001 136.822Q357.6970000000001 136.822 356.92650000000015 137.63850000000002Q356.1560000000001 138.455 356.1560000000001 139.95Z M374.1640000000001 148.23Q372.27800000000013 148.23 371.1395000000001 146.96499999999997Q370.0010000000001 145.7 370.0010000000001 143.538V139.835Q370.0010000000001 137.65 371.1280000000001 136.385Q372.2550000000001 135.12 374.1640000000001 135.12Q375.5900000000001 135.12 376.52150000000006 135.833Q377.4530000000001 136.546 377.6370000000001 137.765H377.66000000000014L377.6140000000001 134.89V131.21H379.68400000000014V148.0H377.6140000000001V145.585H377.5910000000001Q377.4300000000001 146.827 376.5100000000001 147.5285Q375.5900000000001 148.23 374.1640000000001 148.23ZM374.8540000000001 146.436Q376.1420000000001 146.436 376.8780000000001 145.631Q377.6140000000001 144.826 377.6140000000001 143.4V139.95Q377.6140000000001 138.524 376.8780000000001 137.719Q376.1420000000001 136.914 374.8540000000001 136.914Q373.5430000000001 136.914 372.80700000000013 137.5925Q372.07100000000014 138.27100000000002 372.07100000000014 139.835V143.515Q372.07100000000014 145.056 372.80700000000013 145.746Q373.5430000000001 146.436 374.8540000000001 146.436Z M405.99400000000014 148.184Q403.87800000000016 148.184 402.7165000000001 147.2295Q401.5550000000001 146.275 401.5550000000001 144.527H403.6250000000001Q403.6250000000001 145.401 404.2460000000001 145.8955Q404.86700000000013 146.39 405.99400000000014 146.39H407.00600000000014Q408.1560000000001 146.39 408.7885000000001 145.884Q409.42100000000016 145.378 409.42100000000016 144.458Q409.42100000000016 142.825 407.92600000000016 142.618L404.4300000000001 142.112Q403.1420000000001 141.928 402.4290000000001 141.04250000000002Q401.7160000000001 140.157 401.7160000000001 138.708Q401.7160000000001 137.052 402.85450000000014 136.10899999999998Q403.9930000000001 135.166 405.99400000000014 135.166H407.00600000000014Q408.8460000000001 135.166 410.00750000000016 136.0745Q411.16900000000015 136.983 411.26100000000014 138.455H409.1680000000001Q409.1220000000001 137.788 408.5355000000001 137.351Q407.9490000000001 136.914 407.00600000000014 136.914H405.99400000000014Q404.93600000000015 136.914 404.33800000000014 137.397Q403.7400000000001 137.88 403.7400000000001 138.708Q403.7400000000001 140.042 404.9590000000001 140.226L408.22500000000014 140.686Q411.44500000000016 141.146 411.44500000000016 144.458Q411.44500000000016 146.229 410.2835000000001 147.2065Q409.1220000000001 148.184 407.00600000000014 148.184Z M419.49400000000014 152.14 421.35700000000014 147.218 416.64200000000017 135.35H418.87300000000016L421.86300000000017 143.17Q422.04700000000014 143.63 422.20800000000014 144.136Q422.36900000000014 144.642 422.43800000000016 145.01Q422.5070000000002 144.642 422.6680000000001 144.136Q422.8290000000001 143.63 422.9900000000001 143.17L425.77300000000014 135.35H427.95800000000014L421.6560000000002 152.14Z M437.59400000000016 148.184Q435.4780000000002 148.184 434.31650000000013 147.2295Q433.15500000000014 146.275 433.15500000000014 144.527H435.22500000000014Q435.22500000000014 145.401 435.8460000000001 145.8955Q436.46700000000016 146.39 437.59400000000016 146.39H438.60600000000017Q439.75600000000014 146.39 440.38850000000014 145.884Q441.0210000000002 145.378 441.0210000000002 144.458Q441.0210000000002 142.825 439.5260000000002 142.618L436.03000000000014 142.112Q434.74200000000013 141.928 434.0290000000001 141.04250000000002Q433.31600000000014 140.157 433.31600000000014 138.708Q433.31600000000014 137.052 434.45450000000017 136.10899999999998Q435.59300000000013 135.166 437.59400000000016 135.166H438.60600000000017Q440.44600000000014 135.166 441.6075000000002 136.0745Q442.7690000000002 136.983 442.86100000000016 138.455H440.76800000000014Q440.72200000000015 137.788 440.13550000000015 137.351Q439.54900000000015 136.914 438.60600000000017 136.914H437.59400000000016Q436.5360000000002 136.914 435.93800000000016 137.397Q435.34000000000015 137.88 435.34000000000015 138.708Q435.34000000000015 140.042 436.55900000000014 140.226L439.82500000000016 140.686Q443.0450000000002 141.146 443.0450000000002 144.458Q443.0450000000002 146.229 441.88350000000014 147.2065Q440.72200000000015 148.184 438.60600000000017 148.184Z M455.1650000000002 148.0Q453.60100000000017 148.0 452.65800000000013 147.0915Q451.71500000000015 146.183 451.71500000000015 144.665V137.236H448.0810000000002V135.35H451.71500000000015V131.785H453.7850000000002V135.35H458.96000000000015V137.236H453.7850000000002V144.665Q453.7850000000002 145.309 454.1645000000002 145.7115Q454.54400000000015 146.114 455.1650000000002 146.114H458.8450000000002V148.0Z M469.70000000000016 148.23Q467.46900000000016 148.23 466.1005000000002 146.8845Q464.7320000000002 145.539 464.7320000000002 143.17V140.18Q464.7320000000002 137.811 466.1005000000002 136.46550000000002Q467.46900000000016 135.12 469.70000000000016 135.12Q471.19500000000016 135.12 472.31050000000016 135.71800000000002Q473.42600000000016 136.316 474.04700000000014 137.397Q474.6680000000002 138.478 474.6680000000002 139.95V142.204H466.7560000000002V143.4Q466.7560000000002 144.803 467.56100000000015 145.61950000000002Q468.36600000000016 146.436 469.70000000000016 146.436Q470.8500000000002 146.436 471.5975000000002 145.9875Q472.3450000000002 145.539 472.5060000000002 144.78H474.5760000000002Q474.3690000000002 146.367 473.0350000000002 147.2985Q471.7010000000002 148.23 469.70000000000016 148.23ZM466.7560000000002 140.594H472.6440000000002V139.95Q472.6440000000002 138.455 471.87350000000015 137.63850000000002Q471.1030000000002 136.822 469.70000000000016 136.822Q468.2970000000002 136.822 467.52650000000017 137.63850000000002Q466.7560000000002 138.455 466.7560000000002 139.95Z M479.9800000000002 148.0V135.35H481.77400000000017V137.029H481.8200000000002Q481.9350000000002 136.178 482.49850000000015 135.649Q483.0620000000002 135.12 483.9360000000002 135.12Q484.7640000000002 135.12 485.33900000000017 135.603Q485.9140000000002 136.086 486.1670000000002 136.914H486.19000000000017Q486.35100000000017 136.086 486.9145000000002 135.603Q487.4780000000002 135.12 488.3520000000002 135.12Q489.5710000000002 135.12 490.2955000000002 136.0285Q491.0200000000002 136.937 491.0200000000002 138.386V148.0H489.0880000000002V138.363Q489.0880000000002 137.604 488.7200000000002 137.15550000000002Q488.3520000000002 136.707 487.7080000000002 136.707Q487.0870000000002 136.707 486.71900000000016 137.144Q486.35100000000017 137.581 486.35100000000017 138.34V148.0H484.64900000000017V138.363Q484.64900000000017 137.604 484.2810000000002 137.15550000000002Q483.9130000000002 136.707 483.2920000000002 136.707Q482.6480000000002 136.707 482.2800000000002 137.144Q481.9120000000002 137.581 481.9120000000002 138.34V148.0Z M500.7940000000002 148.184Q498.6780000000002 148.184 497.5165000000002 147.2295Q496.3550000000002 146.275 496.3550000000002 144.527H498.4250000000002Q498.4250000000002 145.401 499.04600000000016 145.8955Q499.6670000000002 146.39 500.7940000000002 146.39H501.8060000000002Q502.9560000000002 146.39 503.5885000000002 145.884Q504.22100000000023 145.378 504.22100000000023 144.458Q504.22100000000023 142.825 502.7260000000002 142.618L499.2300000000002 142.112Q497.9420000000002 141.928 497.22900000000016 141.04250000000002Q496.5160000000002 140.157 496.5160000000002 138.708Q496.5160000000002 137.052 497.6545000000002 136.10899999999998Q498.7930000000002 135.166 500.7940000000002 135.166H501.8060000000002Q503.6460000000002 135.166 504.80750000000023 136.0745Q505.9690000000002 136.983 506.0610000000002 138.455H503.9680000000002Q503.9220000000002 137.788 503.3355000000002 137.351Q502.7490000000002 136.914 501.8060000000002 136.914H500.7940000000002Q499.7360000000002 136.914 499.1380000000002 137.397Q498.5400000000002 137.88 498.5400000000002 138.708Q498.5400000000002 140.042 499.7590000000002 140.226L503.0250000000002 140.686Q506.24500000000023 141.146 506.24500000000023 144.458Q506.24500000000023 146.229 505.0835000000002 147.2065Q503.9220000000002 148.184 501.8060000000002 148.184Z"/>
</svg>
